<svg xmlns="http://www.w3.org/2000/svg" viewBox="0 0 512 512">
  <circle cx="256" cy="256" r="256" fill="#f0f0f0"/>
  <path fill="#0052b4" d="M52.9 100.1C32.9 127.4 18 158.8 9.2 192h118.6L52.9 100.1zM502.8 192c-8.8-33.2-23.7-64.6-43.7-91.9L384.2 192h118.6zM9.2 320c8.8 33.2 23.7 64.6 43.7 91.9L127.8 320H9.2zM411.9 52.9C384.6 32.9 353.2 18 320 9.2V127.8L411.9 52.9zM100.1 459.1c27.3 20 58.7 34.9 91.9 43.7V384.2L100.1 459.1zM192 9.2c-33.2 8.8-64.6 23.7-91.9 43.7L192 127.8V9.2zM320 502.8c33.2-8.8 64.6-23.7 91.9-43.7L320 384.2v118.6zM384.2 320l91.9 91.9c20-27.3 34.9-58.7 43.7-91.9H384.2z"/>
  <path fill="#d80027" d="M509.8 224H288V2.2C277.8.7 266.9 0 256 0s-21.8.7-32 2.2V224H2.2C.7 234.2 0 245.1 0 256s.7 21.8 2.2 32H224v221.8c10.2 1.5 21.1 2.2 32 2.2s21.8-.7 32-2.2V288h221.8c1.5-10.2 2.2-21.1 2.2-32s-.7-21.8-2.2-32z"/>
  <path fill="#d80027" d="M320 320l114.5 114.5c5.3-5.3 10.4-10.9 15.2-16.6L342.6 320H320zM192 320v22.6l-114.5 114.5c5.3 5.3 10.9 10.4 16.6 15.2L214.6 342.6V320H192zM192 192L77.5 77.5c-5.3 5.3-10.4 10.9-15.2 16.6L169.4 192H192zM320 192V169.4l114.5-114.5c-5.3-5.3-10.9-10.4-16.6-15.2L297.4 169.4V192H320z"/>
</svg>
