<?xml version="1.0" encoding="UTF-8" standalone="no"?>
<svg
   width="900"
   height="600"
   viewBox="0 0 10800 7200"
   fill="#ee1c25"
   version="1.1"
   id="svg5"
   sodipodi:docname="Flag_of_Slovakia.svg"
   inkscape:version="1.4 (e7c3feb100, 2024-10-09)"
   xmlns:inkscape="http://www.inkscape.org/namespaces/inkscape"
   xmlns:sodipodi="http://sodipodi.sourceforge.net/DTD/sodipodi-0.dtd"
   xmlns="http://www.w3.org/2000/svg"
   xmlns:svg="http://www.w3.org/2000/svg">
  <sodipodi:namedview
     id="namedview5"
     pagecolor="#ffffff"
     bordercolor="#000000"
     borderopacity="0.25"
     inkscape:showpageshadow="2"
     inkscape:pageopacity="0.0"
     inkscape:pagecheckerboard="0"
     inkscape:deskcolor="#d1d1d1"
     inkscape:zoom="0.78333333"
     inkscape:cx="450"
     inkscape:cy="300.6383"
     inkscape:window-width="1280"
     inkscape:window-height="730"
     inkscape:window-x="0"
     inkscape:window-y="0"
     inkscape:window-maximized="1"
     inkscape:current-layer="g3" />
  <title
     id="title1">Flag of Slovakia</title>
  <defs
     id="defs1" />
  <g
     id="g3">
    <path
       fill="#ffffff"
       d="M 0,0 H 10800 V 7200 H 0 Z"
       id="path1"
       style="stroke-width:1200" />
    <path
       fill="#0b4ea2"
       d="M 0,2400 H 10800 V 7200 H 0 Z"
       id="path2"
       style="stroke-width:1200" />
    <path
       d="M 0,4800 H 10800 V 7200 H 0 Z"
       id="path3"
       style="stroke-width:1200;fill:#ee1c25;fill-opacity:1" />
  </g>
  <path
     id="use3"
     d="m 4678,1746 c 0,0 56,561 56,1683 -8,1146 -865,1726 -1494,2031 -629,-305 -1486,-885 -1494,-2031 0,-1122 56,-1683 56,-1683 z"
     style="fill:#ee1c25;fill-opacity:1" />
  <path
     fill="#fff"
     d="m3113 4800V3397c-475 0-610 42-752 85a2323 2323 0 0 0 0-431c142 43 277 85 752 85v-390c-150 0-357 6-595 87a2323 2323 0 0 0 0-432c238 80 445 86 595 86 0-113-35-356-79-557a2323 2323 0 0 0 412 0c-44 201-79 444-79 557 150 0 357-6 595-86a2323 2323 0 0 0 0 432c-238-81-445-87-595-87v390c475 0 610-42 752-85a2323 2323 0 0 0 0 431c-142-43-277-85-752-85v1403z"
     id="path4" />
  <path
     id="path5"
     d="M 3240 3950.5781 A 584 1084 0 0 0 2782.0078 4362 A 507 867 0 0 0 2064 4506.0469 C 2372.5873 4975.9148 2850.0226 5270.9013 3240 5460 C 3629.5581 5271.1046 4106.3738 4976.5337 4414.9922 4507.5469 A 507 867 0 0 0 3697.9922 4362 A 584 1084 0 0 0 3240 3950.5781 z "
     style="fill:#0b4ea2" />
  <path
     style="fill:#ffffff"
     d="m 1753.1211,1692 -4.8535,48.6367 c 0,0 -56.2676,564.5665 -56.2676,1688.3633 v 0.1895 l 0,0.1875 c 4.0935,586.3961 227.0968,1032.4569 527.9941,1366.6308 300.8973,334.1739 678.5151,558.4197 996.4434,712.582 l 23.5605,11.4239 23.5605,-11.4239 c 317.9283,-154.1623 695.5461,-378.4081 996.4434,-712.582 300.8973,-334.1739 523.9006,-780.2347 527.9941,-1366.6308 l 0,-0.1875 V 3429 c 0,-1123.7968 -56.2676,-1688.3633 -56.2676,-1688.3633 L 4726.8789,1692 Z m 98.4062,108 h 2776.9454 c 12.6237,150.5769 51.5206,688.885 51.5273,1628.7676 -3.9418,559.5305 -213.4261,976.4261 -500.2539,1294.9746 -279.6848,310.6154 -633.882,525.6674 -939.7461,676.041 -305.8641,-150.3736 -660.0613,-365.4256 -939.7461,-676.041 C 2013.4261,4405.1937 1803.9418,3988.2981 1800,3428.7676 1800.0067,2488.885 1838.9036,1950.5769 1851.5273,1800 Z"
     id="use5" />
</svg>
